<svg xmlns="http://www.w3.org/2000/svg" xmlns:xlink="http://www.w3.org/1999/xlink" viewBox="98 176 404 496">
<path fill-rule="nonzero" fill="rgb(98.039246%, 78.42865%, 25.489807%)" fill-opacity="1" d="M 261.03125 226.21875 C 261.265625 227.214844 261.449219 228.21875 261.585938 229.234375 C 261.722656 230.25 261.808594 231.269531 261.847656 232.292969 C 261.882812 233.316406 261.867188 234.335938 261.804688 235.359375 C 261.738281 236.382812 261.625 237.398438 261.460938 238.410156 C 261.296875 239.421875 261.085938 240.421875 260.820312 241.410156 C 260.558594 242.398438 260.25 243.375 259.890625 244.335938 C 259.535156 245.292969 259.128906 246.234375 258.679688 247.152344 C 258.226562 248.070312 257.734375 248.96875 257.195312 249.839844 C 256.65625 250.710938 256.078125 251.550781 255.457031 252.367188 C 254.835938 253.179688 254.175781 253.960938 253.476562 254.710938 C 252.777344 255.460938 252.046875 256.175781 251.277344 256.851562 C 250.511719 257.527344 249.710938 258.167969 248.878906 258.765625 C 248.050781 259.363281 247.191406 259.921875 246.304688 260.433594 C 245.417969 260.949219 244.511719 261.417969 243.578125 261.84375 C 242.648438 262.269531 241.699219 262.648438 240.730469 262.980469 C 239.761719 263.3125 238.777344 263.59375 237.78125 263.832031 C 236.785156 264.066406 235.777344 264.25 234.761719 264.386719 C 233.75 264.523438 232.730469 264.609375 231.707031 264.648438 C 230.683594 264.683594 229.660156 264.667969 228.636719 264.605469 C 227.617188 264.539062 226.597656 264.425781 225.589844 264.261719 C 224.578125 264.097656 223.578125 263.886719 222.585938 263.621094 C 221.597656 263.359375 220.621094 263.050781 219.664062 262.691406 C 218.703125 262.335938 217.765625 261.929688 216.84375 261.480469 C 215.925781 261.027344 215.03125 260.535156 214.160156 259.996094 C 213.289062 259.457031 212.445312 258.878906 211.632812 258.257812 C 210.816406 257.636719 210.035156 256.976562 209.285156 256.277344 C 208.535156 255.578125 207.824219 254.847656 207.144531 254.078125 C 206.46875 253.3125 205.832031 252.511719 205.230469 251.679688 C 204.632812 250.851562 204.078125 249.992188 203.5625 249.105469 C 203.046875 248.21875 202.578125 247.3125 202.152344 246.378906 C 201.726562 245.449219 201.347656 244.5 201.015625 243.53125 C 200.6875 242.5625 200.402344 241.578125 200.167969 240.582031 C 199.933594 239.585938 199.746094 238.578125 199.609375 237.5625 C 199.472656 236.550781 199.386719 235.53125 199.351562 234.507812 C 199.3125 233.484375 199.328125 232.460938 199.390625 231.4375 C 199.457031 230.417969 199.570312 229.398438 199.734375 228.390625 C 199.898438 227.378906 200.113281 226.378906 200.375 225.386719 C 200.636719 224.398438 200.945312 223.425781 201.304688 222.464844 C 201.664062 221.503906 202.066406 220.566406 202.519531 219.644531 C 202.96875 218.726562 203.460938 217.832031 204 216.960938 C 204.539062 216.089844 205.121094 215.246094 205.742188 214.433594 C 206.363281 213.617188 207.023438 212.835938 207.71875 212.085938 C 208.417969 211.335938 209.152344 210.625 209.917969 209.949219 C 210.6875 209.269531 211.484375 208.632812 212.316406 208.035156 C 213.148438 207.433594 214.007812 206.878906 214.890625 206.363281 C 215.777344 205.847656 216.683594 205.378906 217.617188 204.953125 C 218.546875 204.527344 219.5 204.152344 220.46875 203.820312 C 221.4375 203.488281 222.417969 203.203125 223.414062 202.96875 C 224.414062 202.734375 225.417969 202.546875 226.433594 202.410156 C 227.449219 202.273438 228.46875 202.1875 229.492188 202.152344 C 230.515625 202.117188 231.535156 202.128906 232.558594 202.195312 C 233.582031 202.257812 234.597656 202.371094 235.609375 202.535156 C 236.617188 202.699219 237.621094 202.914062 238.609375 203.175781 C 239.597656 203.4375 240.574219 203.75 241.53125 204.105469 C 242.492188 204.464844 243.433594 204.867188 244.351562 205.320312 C 245.269531 205.769531 246.167969 206.265625 247.039062 206.800781 C 247.910156 207.339844 248.75 207.921875 249.566406 208.542969 C 250.378906 209.164062 251.160156 209.824219 251.910156 210.519531 C 252.660156 211.21875 253.375 211.953125 254.050781 212.71875 C 254.726562 213.488281 255.367188 214.289062 255.964844 215.117188 C 256.5625 215.949219 257.121094 216.808594 257.632812 217.691406 C 258.148438 218.578125 258.617188 219.488281 259.042969 220.417969 C 259.46875 221.351562 259.847656 222.300781 260.179688 223.269531 C 260.511719 224.238281 260.792969 225.21875 261.03125 226.21875 Z M 261.03125 226.21875 "/>
<path fill-rule="nonzero" fill="rgb(98.039246%, 78.42865%, 25.489807%)" fill-opacity="1" d="M 440.164062 295.070312 L 322.480469 295.070312 L 322.480469 427.019531 L 335.183594 427.019531 L 339.320312 433.996094 L 331.410156 433.996094 L 329.996094 438.753906 L 333.390625 450.183594 L 371.332031 450.183594 C 373.554688 450.183594 375.996094 452.007812 376.789062 454.308594 L 381.324219 467.59375 L 405.929688 467.59375 C 405.929688 473.699219 402.808594 479.136719 397.90625 482.6875 C 399.066406 482.230469 400.097656 481.660156 401.207031 481.023438 C 404.359375 479.265625 408.292969 477.0625 415.539062 477.0625 C 422.785156 477.0625 426.71875 479.265625 429.871094 481.023438 C 432.617188 482.578125 434.789062 483.785156 439.5625 483.785156 C 439.765625 483.785156 439.972656 483.785156 440.164062 483.765625 Z M 370.304688 423.628906 L 352.671875 423.628906 L 352.671875 397.71875 L 370.304688 397.71875 Z M 370.304688 381.992188 L 352.671875 381.992188 L 352.671875 356.097656 L 370.304688 356.097656 Z M 370.304688 339.972656 L 352.671875 339.972656 L 352.671875 314.066406 L 370.304688 314.066406 Z M 411.226562 423.628906 L 393.59375 423.628906 L 393.59375 397.71875 L 411.226562 397.71875 Z M 411.226562 381.992188 L 393.59375 381.992188 L 393.59375 356.097656 L 411.226562 356.097656 Z M 411.226562 339.972656 L 393.59375 339.972656 L 393.59375 314.066406 L 411.226562 314.066406 Z M 411.226562 339.972656 "/>
<path fill-rule="nonzero" fill="rgb(98.039246%, 78.42865%, 25.489807%)" fill-opacity="1" d="M 420.074219 240.875 L 409.546875 240.875 C 407.929688 240.875 406.453125 239.878906 405.851562 238.371094 C 401.855469 228.082031 392.167969 221.453125 381.164062 221.453125 C 370.160156 221.453125 360.472656 228.082031 356.492188 238.339844 C 356.445312 238.449219 356.398438 238.5625 356.351562 238.671875 C 355.683594 240.019531 354.304688 240.875 352.796875 240.875 L 342.601562 240.875 C 352.148438 268.8125 324.367188 286.082031 322.59375 287.144531 L 440.101562 287.144531 C 438.324219 286.082031 410.527344 268.796875 420.089844 240.875 Z M 381.148438 265.199219 C 374.566406 265.199219 369.226562 259.855469 369.226562 253.277344 C 369.226562 246.695312 374.566406 241.335938 381.148438 241.335938 C 387.726562 241.335938 393.085938 246.695312 393.085938 253.277344 C 393.085938 259.855469 387.726562 265.199219 381.148438 265.199219 Z M 381.148438 265.199219 "/>
<path fill-rule="nonzero" fill="rgb(94.119263%, 52.938843%, 13.729858%)" fill-opacity="1" d="M 226.476562 624.390625 C 227.285156 623.4375 232.546875 617.429688 234.164062 615.003906 C 235.386719 613.179688 236.796875 610.40625 236.796875 607.773438 C 236.796875 603.730469 233.894531 600.957031 230.105469 600.957031 C 225.507812 600.957031 223.082031 604.601562 222.957031 608.457031 L 213.902344 608.457031 C 214.3125 599.273438 220.785156 593.394531 229.710938 593.394531 C 240.175781 593.394531 245.582031 600.542969 245.582031 607.710938 C 245.582031 614.878906 240.921875 619.664062 237.417969 623.4375 L 229.648438 631.875 L 245.914062 631.875 L 245.914062 639.4375 L 213.234375 639.4375 L 226.476562 624.375 Z M 226.476562 624.390625 "/>
<path fill-rule="nonzero" fill="rgb(94.119263%, 52.938843%, 13.729858%)" fill-opacity="1" d="M 301.425781 616.96875 C 301.425781 630.683594 291.5625 640.46875 277.386719 640.46875 C 263.214844 640.46875 253.351562 630.683594 253.351562 616.96875 C 253.351562 603.253906 263.214844 593.410156 277.386719 593.410156 C 291.5625 593.410156 301.425781 603.269531 301.425781 616.96875 Z M 292.386719 616.96875 C 292.386719 607.851562 286.171875 601.367188 277.402344 601.367188 C 268.636719 601.367188 262.421875 607.851562 262.421875 616.96875 C 262.421875 626.085938 268.636719 632.492188 277.402344 632.492188 C 286.171875 632.492188 292.386719 626.070312 292.386719 616.96875 Z M 292.386719 616.96875 "/>
<path fill-rule="nonzero" fill="rgb(94.119263%, 52.938843%, 13.729858%)" fill-opacity="1" d="M 321.085938 624.390625 C 321.894531 623.4375 327.160156 617.429688 328.792969 615.003906 C 330.011719 613.179688 331.425781 610.40625 331.425781 607.773438 C 331.425781 603.730469 328.523438 600.957031 324.734375 600.957031 C 320.136719 600.957031 317.710938 604.601562 317.582031 608.457031 L 308.527344 608.457031 C 308.941406 599.273438 315.410156 593.394531 324.335938 593.394531 C 334.800781 593.394531 340.207031 600.542969 340.207031 607.710938 C 340.207031 614.878906 335.546875 619.664062 332.042969 623.4375 L 324.273438 631.875 L 340.542969 631.875 L 340.542969 639.4375 L 307.863281 639.4375 L 321.101562 624.375 Z M 321.085938 624.390625 "/>
<path fill-rule="nonzero" fill="rgb(94.119263%, 52.938843%, 13.729858%)" fill-opacity="1" d="M 373.015625 596.644531 L 362.074219 610.898438 C 363.421875 610.292969 365.039062 609.820312 367.003906 609.820312 C 370.320312 609.820312 374.296875 611.101562 376.929688 613.671875 C 379.292969 615.90625 381.179688 619.746094 381.179688 624.46875 C 381.179688 628.242188 380.101562 632.03125 377.058594 635.347656 C 373.203125 639.53125 368.8125 640.484375 364.230469 640.484375 C 359.648438 640.484375 355.113281 639.613281 351.402344 635.886719 C 348.976562 633.460938 347.011719 630.003906 347.011719 624.945312 C 347.011719 619.476562 349.515625 615.082031 352.6875 610.898438 L 365.925781 593.203125 Z M 369.96875 631.144531 C 371.046875 630.066406 372.394531 628.179688 372.394531 625.199219 C 372.394531 622.503906 371.445312 620.472656 369.890625 618.984375 C 368.210938 617.367188 366.308594 616.828125 364.085938 616.828125 C 361.457031 616.828125 359.695312 617.699219 358.203125 619.253906 C 356.585938 620.933594 355.777344 622.628906 355.777344 625.136719 C 355.777344 627.640625 356.585938 629.65625 358.285156 631.207031 C 359.425781 632.285156 361.390625 633.445312 364.085938 633.445312 C 366.925781 633.445312 368.8125 632.300781 369.96875 631.144531 Z M 369.96875 631.144531 "/>
<path fill-rule="nonzero" fill="rgb(94.119263%, 52.938843%, 13.729858%)" fill-opacity="1" d="M 230.597656 187.917969 C 205.484375 187.917969 185.125 208.277344 185.125 233.390625 C 185.125 258.507812 205.484375 278.867188 230.597656 278.867188 C 255.714844 278.867188 276.074219 258.507812 276.074219 233.390625 C 276.074219 208.277344 255.714844 187.917969 230.597656 187.917969 Z M 230.597656 264.660156 C 213.332031 264.660156 199.332031 250.660156 199.332031 233.390625 C 199.332031 216.125 213.332031 202.125 230.597656 202.125 C 247.863281 202.125 261.867188 216.125 261.867188 233.390625 C 261.867188 250.660156 247.863281 264.660156 230.597656 264.660156 Z M 230.597656 264.660156 "/>
<path fill-rule="nonzero" fill="rgb(94.119263%, 52.938843%, 13.729858%)" fill-opacity="1" d="M 356.351562 238.6875 C 356.398438 238.578125 356.460938 238.464844 356.492188 238.355469 C 360.472656 228.097656 370.160156 221.46875 381.164062 221.46875 C 392.167969 221.46875 401.855469 228.097656 405.851562 238.386719 C 406.453125 239.894531 407.914062 240.890625 409.546875 240.890625 L 423.703125 240.890625 L 423.703125 232.964844 L 412.128906 232.964844 C 406.40625 221.074219 394.53125 213.542969 381.164062 213.542969 C 367.796875 213.542969 355.921875 221.074219 350.199219 232.964844 L 342.015625 232.964844 C 342.015625 232.964844 338.941406 233.027344 338.941406 233.027344 L 338.941406 236.929688 L 339.003906 240.890625 C 339.273438 240.890625 341.84375 240.890625 342.03125 240.890625 L 342.585938 240.890625 C 342.585938 240.890625 352.78125 240.890625 352.78125 240.890625 C 354.289062 240.890625 355.667969 240.035156 356.335938 238.6875 Z M 356.351562 238.6875 "/>
<path fill-rule="nonzero" fill="rgb(94.119263%, 52.938843%, 13.729858%)" fill-opacity="1" d="M 440.164062 287.207031 L 440.164062 287.144531 L 322.480469 287.144531 L 322.480469 295.070312 L 440.164062 295.070312 Z M 440.164062 287.207031 "/>
<path fill-rule="nonzero" fill="rgb(94.119263%, 52.938843%, 13.729858%)" fill-opacity="1" d="M 306.609375 427.035156 L 306.609375 339.910156 L 249.734375 339.910156 L 249.769531 339.863281 L 229.519531 314.984375 L 209.273438 339.863281 L 209.304688 339.910156 L 152.414062 339.910156 L 152.414062 483.785156 C 156.566406 483.640625 158.628906 482.5 161.199219 481.039062 C 164.351562 479.28125 168.285156 477.078125 175.53125 477.078125 C 182.777344 477.078125 186.695312 479.28125 189.847656 481.039062 C 192.59375 482.59375 194.765625 483.800781 199.519531 483.800781 C 204.277344 483.800781 206.449219 482.59375 209.191406 481.039062 C 212.347656 479.28125 216.28125 477.078125 223.527344 477.078125 C 224.082031 477.078125 224.589844 477.109375 225.113281 477.140625 C 223.351562 474.316406 222.320312 471.082031 222.320312 467.609375 L 246.945312 467.609375 L 251.480469 454.324219 C 252.273438 452.023438 254.699219 450.203125 256.933594 450.203125 L 294.878906 450.203125 L 298.269531 438.769531 L 296.859375 434.011719 L 289.867188 434.011719 L 293.988281 427.035156 Z M 199.0625 423.628906 L 181.445312 423.628906 L 181.445312 397.71875 L 199.0625 397.71875 Z M 199.0625 381.992188 L 181.445312 381.992188 L 181.445312 356.097656 L 199.0625 356.097656 Z M 238.414062 423.628906 L 220.785156 423.628906 L 220.785156 397.71875 L 238.414062 397.71875 Z M 238.414062 381.992188 L 220.785156 381.992188 L 220.785156 356.097656 L 238.414062 356.097656 Z M 277.753906 423.628906 L 260.121094 423.628906 L 260.121094 397.71875 L 277.753906 397.71875 Z M 277.753906 381.992188 L 260.121094 381.992188 L 260.121094 356.097656 L 277.753906 356.097656 Z M 277.753906 381.992188 "/>
<path fill-rule="nonzero" fill="rgb(11.759949%, 47.059631%, 70.588684%)" fill-opacity="1" d="M 130.023438 535.664062 C 127.425781 532.191406 124.347656 531.855469 122.730469 531.855469 C 118.054688 531.855469 116.578125 534.804688 116.578125 537.074219 C 116.578125 538.136719 116.914062 539.152344 117.992188 540.085938 C 119.054688 541.085938 120.527344 541.625 123.335938 542.625 C 126.804688 543.828125 130.089844 545.035156 132.355469 547.09375 C 134.371094 548.902344 136.160156 551.914062 136.160156 556.449219 C 136.160156 565.136719 129.882812 571.085938 120.65625 571.085938 C 112.425781 571.085938 107.621094 566.074219 105.273438 562.664062 L 110.949219 557.242188 C 113.089844 561.585938 117.167969 563.1875 120.304688 563.1875 C 124.253906 563.1875 127.1875 560.777344 127.1875 557.035156 C 127.1875 555.433594 126.648438 554.167969 125.441406 553.023438 C 123.777344 551.488281 121.097656 550.613281 118.5625 549.742188 C 116.214844 548.933594 113.410156 547.871094 111.140625 545.859375 C 109.667969 544.589844 107.589844 542.117188 107.589844 537.566406 C 107.589844 531.015625 111.996094 524.453125 121.890625 524.453125 C 124.699219 524.453125 129.976562 524.992188 134.527344 529.667969 L 129.976562 535.613281 Z M 130.023438 535.664062 "/>
<path fill-rule="nonzero" fill="rgb(11.759949%, 47.059631%, 70.588684%)" fill-opacity="1" d="M 157.171875 533 L 157.171875 570.101562 L 148.480469 570.101562 L 148.480469 533 L 138.445312 533 L 138.445312 525.515625 L 167.191406 525.515625 L 167.191406 533 Z M 157.171875 533 "/>
<path fill-rule="nonzero" fill="rgb(11.759949%, 47.059631%, 70.588684%)" fill-opacity="1" d="M 216.21875 547.839844 C 216.21875 561.414062 206.449219 571.101562 192.417969 571.101562 C 178.386719 571.101562 168.617188 561.414062 168.617188 547.839844 C 168.617188 534.265625 178.386719 524.5 192.417969 524.5 C 206.449219 524.5 216.21875 534.265625 216.21875 547.839844 Z M 207.257812 547.839844 C 207.257812 538.816406 201.105469 532.394531 192.417969 532.394531 C 183.726562 532.394531 177.578125 538.816406 177.578125 547.839844 C 177.578125 556.863281 183.726562 563.21875 192.417969 563.21875 C 201.105469 563.21875 207.257812 556.863281 207.257812 547.839844 Z M 207.257812 547.839844 "/>
<path fill-rule="nonzero" fill="rgb(11.759949%, 47.059631%, 70.588684%)" fill-opacity="1" d="M 256.601562 568.5 C 253.921875 569.910156 250.386719 571.101562 245.566406 571.101562 C 237.75 571.101562 232.992188 568.421875 229.25 564.882812 C 224.097656 559.9375 222.097656 554.386719 222.097656 547.839844 C 222.097656 539.753906 225.445312 533.933594 229.25 530.382812 C 233.738281 526.164062 239.285156 524.5 245.628906 524.5 C 248.769531 524.5 252.511719 525.039062 256.601562 527.242188 L 256.601562 537.40625 C 252.527344 532.730469 247.4375 532.394531 245.835938 532.394531 C 236.875 532.394531 231.058594 539.753906 231.058594 547.984375 C 231.058594 557.875 238.683594 563.21875 246.167969 563.21875 C 250.308594 563.21875 253.984375 561.410156 256.601562 558.335938 Z M 256.601562 568.5 "/>
<path fill-rule="nonzero" fill="rgb(11.759949%, 47.059631%, 70.588684%)" fill-opacity="1" d="M 273.3125 544.351562 L 289.691406 525.5 L 300.664062 525.5 L 281.8125 546.09375 L 301.664062 570.101562 L 290.167969 570.101562 L 274.328125 550.105469 L 273.328125 551.105469 L 273.328125 570.101562 L 264.640625 570.101562 L 264.640625 525.5 L 273.328125 525.5 L 273.328125 544.351562 Z M 273.3125 544.351562 "/>
<path fill-rule="nonzero" fill="rgb(11.759949%, 47.059631%, 70.588684%)" fill-opacity="1" d="M 315.839844 542.75 L 334.691406 542.75 L 334.691406 525.5 L 343.378906 525.5 L 343.378906 570.101562 L 334.691406 570.101562 L 334.691406 550.25 L 315.839844 550.25 L 315.839844 570.101562 L 307.148438 570.101562 L 307.148438 525.5 L 315.839844 525.5 Z M 315.839844 542.75 "/>
<path fill-rule="nonzero" fill="rgb(11.759949%, 47.059631%, 70.588684%)" fill-opacity="1" d="M 399.019531 547.839844 C 399.019531 561.414062 389.25 571.101562 375.21875 571.101562 C 361.1875 571.101562 351.417969 561.414062 351.417969 547.839844 C 351.417969 534.265625 361.1875 524.5 375.21875 524.5 C 389.25 524.5 399.019531 534.265625 399.019531 547.839844 Z M 390.058594 547.839844 C 390.058594 538.816406 383.90625 532.394531 375.21875 532.394531 C 366.527344 532.394531 360.378906 538.816406 360.378906 547.839844 C 360.378906 556.863281 366.527344 563.21875 375.21875 563.21875 C 383.90625 563.21875 390.058594 556.863281 390.058594 547.839844 Z M 390.058594 547.839844 "/>
<path fill-rule="nonzero" fill="rgb(11.759949%, 47.059631%, 70.588684%)" fill-opacity="1" d="M 415.730469 525.5 L 415.730469 562.601562 L 429.507812 562.601562 L 429.507812 570.085938 L 407.039062 570.085938 L 407.039062 525.484375 L 415.730469 525.484375 Z M 415.730469 525.5 "/>
<path fill-rule="nonzero" fill="rgb(11.759949%, 47.059631%, 70.588684%)" fill-opacity="1" d="M 441.542969 525.5 L 447.820312 525.5 L 459.648438 553.847656 L 472.015625 525.5 L 478.296875 525.5 L 485.78125 570.101562 L 476.949219 570.101562 L 472.9375 542.625 L 460.964844 570.101562 L 458.03125 570.101562 L 446.601562 542.625 L 442.050781 570.101562 L 433.21875 570.101562 L 441.511719 525.5 Z M 441.542969 525.5 "/>
<path fill-rule="nonzero" fill="rgb(11.759949%, 47.059631%, 70.588684%)" fill-opacity="1" d="M 249.734375 339.910156 L 249.769531 339.863281 L 229.519531 314.984375 L 209.273438 339.863281 L 209.304688 339.910156 L 152.414062 339.910156 L 180.605469 305.441406 L 278.433594 305.441406 L 306.609375 339.910156 Z M 249.734375 339.910156 "/>
<path fill-rule="nonzero" fill="rgb(11.759949%, 47.059631%, 70.588684%)" fill-opacity="1" d="M 439.5625 502.492188 C 432.316406 502.492188 428.382812 500.289062 425.226562 498.511719 C 422.484375 496.976562 420.3125 495.753906 415.554688 495.753906 C 410.796875 495.753906 408.625 496.976562 405.882812 498.511719 C 402.726562 500.289062 398.796875 502.492188 391.550781 502.492188 C 384.304688 502.492188 380.371094 500.289062 377.214844 498.511719 C 374.472656 496.976562 372.300781 495.753906 367.542969 495.753906 C 362.789062 495.753906 360.613281 496.976562 357.871094 498.511719 C 354.714844 500.289062 350.785156 502.492188 343.539062 502.492188 C 336.292969 502.492188 332.359375 500.289062 329.203125 498.511719 C 326.460938 496.976562 324.289062 495.753906 319.53125 495.753906 C 314.777344 495.753906 312.605469 496.976562 309.859375 498.511719 C 306.707031 500.289062 302.773438 502.492188 295.527344 502.492188 C 288.28125 502.492188 284.347656 500.289062 281.195312 498.511719 C 278.449219 496.976562 276.277344 495.753906 271.523438 495.753906 C 266.765625 495.753906 264.59375 496.976562 261.851562 498.511719 C 258.695312 500.289062 254.761719 502.492188 247.515625 502.492188 C 240.269531 502.492188 236.335938 500.289062 233.183594 498.511719 C 230.441406 496.976562 228.265625 495.753906 223.511719 495.753906 C 218.753906 495.753906 216.582031 496.976562 213.839844 498.511719 C 210.683594 500.289062 206.75 502.492188 199.503906 502.492188 C 192.257812 502.492188 188.34375 500.289062 185.1875 498.511719 C 182.445312 496.976562 180.273438 495.753906 175.515625 495.753906 C 170.757812 495.753906 168.585938 496.976562 165.84375 498.511719 C 162.6875 500.289062 158.753906 502.492188 151.527344 502.492188 C 144.296875 502.492188 140.363281 500.289062 137.191406 498.511719 C 134.449219 496.976562 132.277344 495.753906 127.519531 495.753906 L 127.519531 486.242188 C 134.765625 486.242188 138.699219 488.445312 141.855469 490.222656 C 144.597656 491.757812 146.769531 492.980469 151.527344 492.980469 C 156.28125 492.980469 158.453125 491.757812 161.199219 490.222656 C 164.351562 488.445312 168.285156 486.242188 175.53125 486.242188 C 182.777344 486.242188 186.695312 488.445312 189.847656 490.222656 C 192.59375 491.757812 194.765625 492.980469 199.519531 492.980469 C 204.277344 492.980469 206.449219 491.757812 209.191406 490.222656 C 212.347656 488.445312 216.28125 486.242188 223.527344 486.242188 C 230.773438 486.242188 234.703125 488.445312 237.859375 490.222656 C 240.601562 491.757812 242.773438 492.980469 247.53125 492.980469 C 252.289062 492.980469 254.460938 491.757812 257.203125 490.222656 C 260.359375 488.445312 264.292969 486.242188 271.539062 486.242188 C 278.785156 486.242188 282.714844 488.445312 285.871094 490.222656 C 288.613281 491.757812 290.785156 492.980469 295.542969 492.980469 C 300.300781 492.980469 302.472656 491.757812 305.214844 490.222656 C 308.371094 488.445312 312.300781 486.242188 319.546875 486.242188 C 326.792969 486.242188 330.726562 488.445312 333.882812 490.222656 C 336.625 491.757812 338.796875 492.980469 343.554688 492.980469 C 348.3125 492.980469 350.484375 491.757812 353.226562 490.222656 C 356.382812 488.445312 360.3125 486.242188 367.558594 486.242188 C 374.804688 486.242188 378.738281 488.445312 381.894531 490.222656 C 384.636719 491.757812 386.808594 492.980469 391.566406 492.980469 C 396.320312 492.980469 398.496094 491.757812 401.238281 490.222656 C 404.394531 488.445312 408.324219 486.242188 415.570312 486.242188 C 422.816406 486.242188 426.75 488.445312 429.90625 490.222656 C 432.648438 491.757812 434.820312 492.980469 439.59375 492.980469 C 444.363281 492.980469 446.519531 491.757812 449.265625 490.222656 C 452.417969 488.445312 456.351562 486.242188 463.597656 486.242188 L 463.597656 495.753906 C 458.839844 495.753906 456.667969 496.976562 453.910156 498.511719 C 450.753906 500.289062 446.824219 502.492188 439.578125 502.492188 Z M 439.5625 502.492188 "/>
<path fill-rule="nonzero" fill="rgb(11.759949%, 47.059631%, 70.588684%)" fill-opacity="1" d="M 259.074219 467.609375 L 259.074219 457.019531 L 274.914062 457.019531 L 274.914062 467.609375 Z M 259.074219 467.609375 "/>
<path fill-rule="nonzero" fill="rgb(11.759949%, 47.059631%, 70.588684%)" fill-opacity="1" d="M 282.875 467.609375 L 282.875 457.019531 L 298.714844 457.019531 L 298.714844 467.609375 Z M 282.875 467.609375 "/>
<path fill-rule="nonzero" fill="rgb(11.759949%, 47.059631%, 70.588684%)" fill-opacity="1" d="M 306.675781 467.59375 L 306.675781 457.003906 L 322.515625 457.003906 L 322.515625 467.59375 Z M 306.675781 467.59375 "/>
<path fill-rule="nonzero" fill="rgb(11.759949%, 47.059631%, 70.588684%)" fill-opacity="1" d="M 330.457031 467.609375 L 330.457031 457.019531 L 346.296875 457.019531 L 346.296875 467.609375 Z M 330.457031 467.609375 "/>
<path fill-rule="nonzero" fill="rgb(11.759949%, 47.059631%, 70.588684%)" fill-opacity="1" d="M 354.464844 467.59375 L 354.464844 457.003906 L 370.304688 457.003906 L 370.304688 467.59375 Z M 354.464844 467.59375 "/>
<path fill-rule="nonzero" fill="rgb(11.759949%, 47.059631%, 70.588684%)" fill-opacity="1" d="M 306.675781 446.539062 L 306.675781 435.945312 L 322.515625 435.945312 L 322.515625 446.539062 Z M 306.675781 446.539062 "/>
</svg>